<?xml version="1.0" standalone="no"?>
<!DOCTYPE svg PUBLIC "-//W3C//DTD SVG 20010904//EN"
 "http://www.w3.org/TR/2001/REC-SVG-20010904/DTD/svg10.dtd">
<svg version="1.0" xmlns="http://www.w3.org/2000/svg"
 width="400.000000pt" height="400.000000pt" viewBox="0 0 400.000000 400.000000"
 preserveAspectRatio="xMidYMid meet">
<metadata>
Created by potrace 1.14, written by Peter Selinger 2001-2017
</metadata>
<g transform="translate(0.000000,400.000000) scale(0.100000,-0.100000)"
fill="#000000" stroke="none">
<path d="M2428 2896 c-1 -2 -41 -6 -88 -9 -96 -7 -123 -11 -200 -34 -280 -81
-514 -293 -607 -549 -83 -229 -74 -494 25 -704 128 -273 391 -470 692 -517 60
-9 240 -9 314 1 133 17 295 84 402 167 200 154 317 424 323 747 l2 102 -464 0
-464 0 0 -160 c-1 -99 3 -163 9 -166 6 -4 119 -8 251 -10 132 -2 242 -6 245
-9 12 -12 -69 -155 -114 -198 -165 -161 -487 -170 -676 -19 -171 136 -242 391
-176 627 6 22 12 45 14 51 5 29 91 148 131 184 64 56 150 102 218 116 87 17
120 20 188 17 145 -7 277 -65 379 -169 l46 -46 132 132 c131 131 132 132 113
153 -129 155 -361 264 -603 283 -36 3 -70 7 -77 9 -6 2 -13 2 -15 1z"/>
<path d="M863 2856 c-3 -5 -6 -286 -7 -625 l-1 -616 -27 -55 c-20 -40 -41 -64
-78 -89 -44 -30 -59 -34 -125 -37 -96 -4 -150 15 -215 73 l-51 46 -32 -31
c-18 -16 -77 -73 -131 -125 l-99 -95 54 -52 c134 -131 276 -182 489 -175 187
5 333 67 446 186 86 92 146 222 160 348 4 42 9 1152 5 1241 -1 13 -28 15 -192
15 -105 0 -193 -4 -196 -9z"/>
<path d="M3560 1524 c-61 -18 -117 -71 -141 -134 -61 -160 43 -314 211 -314
104 0 186 59 214 155 55 183 -103 346 -284 293z"/>
</g>
</svg>
